HIERARCHY
ROOT SimulationBone
{
	OFFSET 0.000000 0.000000 0.000000
	CHANNELS 6 Xposition Yposition Zposition Zrotation Yrotation Xrotation 
	JOINT Hips
	{
		OFFSET 0.000000 0.000000 0.000000
		CHANNELS 6 Xposition Yposition Zposition Zrotation Yrotation Xrotation 
		JOINT RightUpLeg
		{
			OFFSET 0.103457 1.857824 10.548504
			CHANNELS 3 Zrotation Yrotation Xrotation
			JOINT RightLeg
			{
				OFFSET 43.500000 -0.000038 -0.000017
				CHANNELS 3 Zrotation Yrotation Xrotation
				JOINT RightFoot
				{
					OFFSET 42.372200 0.000011 0.000019
					CHANNELS 3 Zrotation Yrotation Xrotation
					JOINT RightToe
					{
						OFFSET 17.300011 0.000002 -0.000008
						CHANNELS 3 Zrotation Yrotation Xrotation
						End Site
						{
							OFFSET 0.000000 0.000000 0.000000
						}
					}
				}
			}
		}
		JOINT LeftUpLeg
		{
			OFFSET 0.103457 1.857822 -10.548492
			CHANNELS 3 Zrotation Yrotation Xrotation
			JOINT LeftLeg
			{
				OFFSET 43.500038 -0.000027 0.000036
				CHANNELS 3 Zrotation Yrotation Xrotation
				JOINT LeftFoot
				{
					OFFSET 42.372261 0.000015 0.000010
					CHANNELS 3 Zrotation Yrotation Xrotation
					JOINT LeftToe
					{
						OFFSET 17.299988 -0.000006 0.000008
						CHANNELS 3 Zrotation Yrotation Xrotation
						End Site
						{
							OFFSET 0.000000 0.000000 0.000000
						}
					}
				}
			}
		}
		JOINT Spine
		{
			OFFSET 6.901965 -2.603737 0.000006
			CHANNELS 3 Zrotation Yrotation Xrotation
			JOINT Spine1
			{
				OFFSET 12.588104 -0.000005 0.000007
				CHANNELS 3 Zrotation Yrotation Xrotation
				JOINT Spine2
				{
					OFFSET 12.343202 0.000026 -0.000008
					CHANNELS 3 Zrotation Yrotation Xrotation
					JOINT Neck
					{
						OFFSET 25.832890 -0.000029 -0.000007
						CHANNELS 3 Zrotation Yrotation Xrotation
						JOINT Head
						{
							OFFSET 11.766619 0.000021 0.000012
							CHANNELS 3 Zrotation Yrotation Xrotation
							End Site
							{
								OFFSET 0.000000 0.000000 0.000000
							}
						}
					}
					JOINT RightShoulder
					{
						OFFSET 19.745909 -1.480377 6.000106
						CHANNELS 3 Zrotation Yrotation Xrotation
						JOINT RightArm
						{
							OFFSET 11.284110 -0.000009 -0.000020
							CHANNELS 3 Zrotation Yrotation Xrotation
							JOINT RightForeArm
							{
								OFFSET 33.000053 0.000014 0.000021
								CHANNELS 3 Zrotation Yrotation Xrotation
								JOINT RightHand
								{
									OFFSET 25.200008 0.000006 -0.000004
									CHANNELS 3 Zrotation Yrotation Xrotation
									End Site
									{
										OFFSET 0.000000 0.000000 0.000000
									}
								}
							}
						}
					}
					JOINT LeftShoulder
					{
						OFFSET 19.746101 -1.480381 -6.000081
						CHANNELS 3 Zrotation Yrotation Xrotation
						JOINT LeftArm
						{
							OFFSET 11.284131 -0.000022 0.000003
							CHANNELS 3 Zrotation Yrotation Xrotation
							JOINT LeftForeArm
							{
								OFFSET 33.000095 0.000014 0.000005
								CHANNELS 3 Zrotation Yrotation Xrotation
								JOINT LeftHand
								{
									OFFSET 25.199774 0.000153 0.000423
									CHANNELS 3 Zrotation Yrotation Xrotation
									End Site
									{
										OFFSET 0.000000 0.000000 0.000000
									}
								}
							}
						}
					}
				}
			}
		}
	}
}
MOTION
Frames: 5
Frame Time: 0.016667
282.088203 0.000000 547.746821 180.000000 -53.595644 180.000000 -1.949421 70.633583 -2.713241 100.313960 -7.775371 179.848331 148.603113 -16.109689 -159.095829 -45.767311 2.108259 7.404821 80.776432 -13.303331 -31.813839 21.454562 0.003104 0.000018 142.085624 5.303898 -160.388988 -100.212022 -0.650588 -8.074504 72.051931 2.133381 -10.792513 21.454548 -0.003092 0.000002 14.414681 -0.711023 2.508750 18.779998 -1.820021 4.869028 18.462973 -1.790753 4.879875 18.750172 -13.168204 -22.002845 -37.990638 27.467219 -39.799074 168.552867 -78.570501 10.164998 -5.792532 34.925154 17.942960 -74.693684 -15.594432 2.767249 -5.259539 -11.574328 19.448252 -150.165552 86.302161 31.655018 8.739294 -57.431685 -20.391640 -81.506115 9.751859 -2.613800 -3.778821 5.490524 -19.915343 
281.313769 0.000000 550.548957 180.000000 -51.716069 180.000000 -1.760851 69.591514 -2.634960 100.156386 -7.178006 178.126100 151.449685 -17.663280 -160.806236 -49.374322 2.658289 6.331537 90.911763 -9.828617 -33.672309 21.454558 0.003106 0.000018 138.379044 6.899244 -162.402807 -106.014029 -0.970177 -10.505816 64.752202 6.107736 -3.745171 21.454558 -0.003092 -0.000004 14.398197 -0.641014 2.697453 18.745733 -1.710770 5.255353 18.428958 -1.679183 5.265535 18.439546 -12.756758 -21.358816 -38.305514 26.612428 -38.755805 168.271671 -77.367908 10.494664 -6.686030 36.556370 18.981589 -72.763090 -16.775525 2.747656 -4.799970 -13.575681 20.179250 -156.936262 85.875530 24.853771 6.826643 -57.602336 -19.909074 -81.025698 10.013538 -2.649625 -1.752999 5.554557 -13.868936 
280.188086 0.000000 553.182362 180.000000 -49.858266 180.000000 -1.828390 68.395576 -2.827884 100.250619 -7.153430 177.727455 152.867569 -18.475406 -162.702797 -53.898268 3.149873 6.688450 98.052132 -7.893844 -33.863151 21.454557 0.003110 0.000018 135.127136 9.384511 -164.190958 -110.582893 -1.311058 -11.894526 64.722660 8.990671 0.800394 21.454557 -0.003093 -0.000003 14.542564 -0.604163 2.407254 19.041326 -1.596420 4.682348 18.724265 -1.568285 4.691861 17.167559 -12.655020 -20.404709 -38.496622 26.215081 -37.698593 170.540206 -75.863172 8.233498 -8.369042 37.571722 19.184251 -70.428996 -18.136567 2.764993 -5.257524 -15.416799 20.193442 -166.408348 85.914748 15.319849 4.698089 -58.779821 -18.770771 -79.786301 10.724506 -2.607235 -0.742762 6.584935 -12.193338 
278.728644 0.000000 555.653982 180.000000 -48.019507 180.000000 -2.105150 67.243330 -3.148457 100.316459 -7.373701 178.186593 153.479091 -19.080098 -164.616304 -58.426312 3.641637 7.781283 103.114500 -7.085416 -33.322044 21.454557 0.003113 0.000018 131.996707 12.117563 -165.639395 -113.650734 -1.552028 -12.193385 68.562625 10.063569 3.363975 21.454551 -0.003094 0.000001 14.751189 -0.561386 1.897727 19.468245 -1.434185 3.674059 19.150749 -1.412126 3.682623 15.303137 -12.456245 -19.377886 -38.566929 25.878521 -36.606033 171.705800 -74.466526 7.087146 -10.398165 38.331380 18.603931 -68.245885 -19.451501 2.775583 -6.017713 -17.047052 20.006807 -174.707207 85.890972 6.966817 2.259990 -60.255910 -17.741604 -77.728230 12.043276 -2.582157 -0.430584 8.717111 -12.743985 
276.952936 0.000000 557.970766 180.000000 -46.197424 180.000000 -2.527260 66.332336 -3.461486 100.078035 -7.488858 179.043245 153.951944 -19.976596 -166.438200 -62.042562 4.070013 8.934408 106.866307 -6.769359 -32.670477 21.454558 0.003114 0.000018 128.719026 14.452803 -166.570979 -114.940909 -1.641640 -11.352150 72.995433 9.426439 3.907971 21.454548 -0.003094 0.000004 14.927414 -0.475373 1.428522 19.828690 -1.188541 2.754392 19.510907 -1.172029 2.761498 13.230301 -11.775634 -18.537979 -38.535079 25.206208 -35.461136 169.352682 -73.629080 9.524603 -12.319066 39.190153 17.297678 -66.783861 -20.490521 2.779229 -6.488295 -18.410712 20.101832 -175.190622 85.472932 6.475821 -0.390361 -61.363162 -17.778932 -74.781254 14.137783 -2.631646 -0.506634 11.942681 -13.400777 
